<?xml version="1.0" encoding="utf-8"?>
<!-- Generator: Adobe Illustrator 26.3.1, SVG Export Plug-In . SVG Version: 6.00 Build 0)  -->
<svg version="1.1" id="Layer_1" xmlns="http://www.w3.org/2000/svg" xmlns:xlink="http://www.w3.org/1999/xlink" x="0px" y="0px"
	 viewBox="0 0 375 190.8" style="enable-background:new 0 0 375 190.8;" xml:space="preserve">
<style type="text/css">
	.st0{clip-path:url(#SVGID_00000085229909245002949070000010539024005738015895_);}
	.st1{fill:#F72A7B;}
	.st2{clip-path:url(#SVGID_00000163046718588616194360000011912890945632396185_);}
	.st3{clip-path:url(#SVGID_00000145056837856820164290000014099150996342531740_);}
	.st4{clip-path:url(#SVGID_00000080919626456025395100000013950108567297202855_);}
	.st5{clip-path:url(#SVGID_00000008110459214234588260000007280515381364925624_);fill:#F72A7B;}
	.st6{clip-path:url(#SVGID_00000008110459214234588260000007280515381364925624_);fill:#FFCB45;}
	.st7{clip-path:url(#SVGID_00000008110459214234588260000007280515381364925624_);fill:#A52B4D;}
	.st8{clip-path:url(#SVGID_00000124127830115282475950000002250013709769576091_);}
	.st9{clip-path:url(#SVGID_00000146477713562788789790000016341190378210604710_);}
	.st10{clip-path:url(#SVGID_00000130647419220217124720000005727031020274168749_);}
	.st11{clip-path:url(#SVGID_00000061453355073112330150000007752504095479000509_);fill:#FFCB45;}
	.st12{clip-path:url(#SVGID_00000057107417006723177760000012586530130493597603_);}
	.st13{clip-path:url(#SVGID_00000078727019672997405330000004047846283030130836_);}
	.st14{clip-path:url(#SVGID_00000039837635618821788580000010446602614954956223_);}
	.st15{clip-path:url(#SVGID_00000050649180558008926090000002842000988746855585_);fill:#FFCB45;}
	.st16{clip-path:url(#SVGID_00000008864604576740558830000016242523796568069762_);}
	.st17{clip-path:url(#SVGID_00000111886538987243215300000003344975422901079738_);}
	.st18{clip-path:url(#SVGID_00000028284856063468381330000006278141221183397510_);}
	.st19{clip-path:url(#SVGID_00000150103037340194589930000010377050634566827147_);fill:#FFCB45;}
</style>
<g>
	<defs>
		<rect id="SVGID_1_" x="-39.26" y="-104.72" width="454.02" height="454.02"/>
	</defs>
	<clipPath id="SVGID_00000124129424616698471530000010217389874461960603_">
		<use xlink:href="#SVGID_1_"  style="overflow:visible;"/>
	</clipPath>
	<g style="clip-path:url(#SVGID_00000124129424616698471530000010217389874461960603_);">
		<path class="st1" d="M100.49,42.68v0.93c0,0.65-0.09,1.2-0.09,1.85L100.12,50c-0.19,2.41-0.37,5-0.46,7.41l-0.46,8.25
			c-0.09,0.93,0,1.85-0.09,2.78c-0.19,2.41-0.19,4.91-0.46,7.32v2.32c0,2.87-0.46,7.78-0.46,10.75l0.74,5.65
			c0.19,0,1.11,0.09,2.04,0.09H103c0.83,0,1.67,0.09,2.78,0.09c0.74-0.09,1.48-0.19,2.32-0.19h3.24c1.76,0,1.3,0.09,1.85,0.09h2.5
			c1.2,0,3.06,0.19,6.39,0.19l-1.95,10.84c-1.48,0-2.41,0.09-3.24,0.09h-9.82c-7.51,0-4.63-0.65-14.27-0.65
			c-1.58,0-3.34,0.19-4.82,0.19c-0.56,0-1.02-0.09-1.57-0.09c-0.65,0-1.2,0.19-1.67,0.19c-0.28,0-0.46-0.09-0.65-0.19
			c0.56-3.06,0.65-6.76,0.65-10.47c0-0.65,0.09-1.3,0.09-1.95V78.73c0-1.85,0.09-3.89,0.09-5.75v-6.39c0-1.67-0.19-4.91-0.19-6.12
			v-5.56c0-1.2,0.09-2.59,0.09-4.08v-1.85c0-2.32,0.09-4.63,0.09-7.04v-2.78c0-1.39,0.09-3.06,0.09-4.54v-1.67
			c-0.65-0.83,12.97,0.19,15.01,0.19l0.56,5.47C100.59,39.81,100.49,41.11,100.49,42.68z"/>
	</g>
	<g style="clip-path:url(#SVGID_00000124129424616698471530000010217389874461960603_);">
		<path class="st1" d="M136.26,86.88c-0.28-1.95-1.11-3.52-1.11-5.93v-1.48c0-1.39-0.19-2.78-0.56-4.17h-0.56
			c-0.19,0-0.37,0.09-0.56,0.09h-1.57c-0.56,0-1.02,0.09-1.58,0.09l-4.91,0.09c-1.76,0-3.61,0-5.37,0.19l-2.13,0.19
			c-1.85,0.19-1.57,1.67-1.67,3.24l-0.28,3.34c0.09,0,0.37,5.19-3.8,4.91l-2.69-0.19l-2.41-0.28c-0.46-0.74-0.65-1.76-0.65-2.59
			c0-1.02,0.28-2.22,0.46-3.24l0.65-3.15l0.74-4.91l0.19-1.11c0.19-1.3,0.46-2.5,0.74-3.8l0.19-1.02l0.83-4.36l0.28-1.67l0.37-1.48
			l0.93-4.17l0.56-3.15l0.19-1.58l0.28-1.67l0.56-3.15l1.02-3.71l0.93-3.15l0.83-3.15c0.19-0.56,0.19-1.02,0.37-1.58l0.46-1.57
			c0.28-1.02,1.2-3.89,1.2-5.1c0-0.93-0.46-1.11-1.3-1.11h-1.3c-2.87,0-6.12,0.56-9.27,0.56c-1.48,0-2.87-0.09-4.36-0.09
			c-1.39,0-2.22,0.37-2.22-1.48l0.56-6.95c0.09-0.93,0.09-1.76,1.02-1.76c0.93,0.19,1.95,0.19,2.97,0.19c2.69,0,6.67-0.37,9.92-0.37
			h2.6c0.56,0,1.02,0.09,1.57,0.09h2.69c1.67,0,3.24-0.19,4.82-0.37l4.82-0.56c1.48-0.19,3.24-0.37,4.82-0.37h1.67
			c0.37,0.09,1.02,0.09,1.76,0.09c1.02,0,2.78-0.09,4.63-0.09c1.2,0,2.59-0.09,3.98-0.09c1.3,0,2.69-0.09,3.99-0.19l5.28-0.28
			c0,2.5,0.74,10.38-2.87,11.21l-3.52,0.37c-1.95,0.19-3.89,0.28-5.84,0.28c-1.39,0-3.61-0.09-3.98,0.28c0,0.19,0.09,0.37,0.09,0.56
			l0.74,3.24l0.56,2.59l0.37,1.67l0.37,1.58l0.46,2.69l0.37,2.59l0.19,2.22c0.19,2.32,0,6.12,0.46,9.08l0.56,3.71l0.74,3.15
			l0.28,1.02l1.11,3.15c0.19,0.56,0.28,1.11,0.46,1.58l0.37,1.57c0.37,1.58,0.74,3.24,1.02,4.82l0.19,1.11
			c0.09,0.28,0.19,0.65,0.19,0.93c0,1.2-0.28,2.32-0.28,3.52c0,1.02,0,2.13,0.19,3.15l0.46,3.06l0.19,1.11
			C149.88,86.42,149.98,85.58,136.26,86.88z M118.75,67.98c2.69,0,5.37-0.19,8.06-0.19h0.93c0.74,0,1.48-0.09,2.22-0.09
			c1.2,0,2.41-0.09,3.61-0.09l-0.19-0.93l-0.83-3.61c-0.09-0.28,0-0.56-0.09-0.83l-0.19-0.93l-0.65-2.97
			c-0.09-0.28,0-0.65-0.09-0.93l-0.56-2.59c-0.09-0.28,0-0.65-0.09-0.93l-0.28-1.3l-0.46-2.22l-0.65-4.08
			c-0.09-0.74-0.28-1.48-0.37-2.22l-0.19-1.76c-0.19-1.39-0.46-2.97-0.46-4.54c0-1.76-0.56-3.61-0.56-5.37l-0.19-1.2
			c-0.19-1.02-0.65-1.95-1.39-2.69l-1.11,3.52l-0.28,0.93l-0.37,1.3l-0.19,0.83l-0.65,2.13l-0.56,2.13l-0.37,1.3l-0.28,0.83
			c0,0.37-0.28,1.02-0.37,1.39l-0.28,0.83c-0.28,0.83-1.02,3.34-1.02,5.84l-0.19,1.3l-0.93,5.37l-0.28,1.3l-0.46,2.22l-0.46,2.32
			l-0.56,2.69l-0.65,3.24H118.75z"/>
	</g>
	<g style="clip-path:url(#SVGID_00000124129424616698471530000010217389874461960603_);">
		<path class="st1" d="M38.58,111.56l2.87,0.28c6.02,0.56,10.93,2.87,13.16,7.14l0.74,1.76c1.11,2.69,1.39,5.65,1.39,8.62
			c0,1.3,0.19,3.52,0.19,4.82c0,3.52-3.71,2.04-8.06,1.95c-4.26-0.09-8.62-0.46-8.8-1.02c-0.56-2.13-0.65-3.98-0.83-6.58
			c-0.28-3.34-0.74-7.78-6.3-7.78h-1.95c-4.73,0.37-7.69,1.67-8.9,5.47l-0.56,1.76l-0.56,2.59c-1.2,5.65-1.76,12.23-1.76,18.35
			c0,1.2,0.09,2.32,0.09,3.43c0,9.17,2.04,12.79,8.15,12.79c1.67,0,3.15-0.37,4.73-0.83c4.63-1.76,4.91-4.63,4.91-9.27
			c-2.13,0-4.17,0.09-6.3,0.09c-1.02,0-1.85-0.18-2.41-0.46v-4.35c0-1.3,0.09-2.5,0.28-3.43c1.39-0.19,2.87-0.09,4.26-0.09h5.28
			c5.19,0,10.29-0.19,14.83-0.19c0.83,0,1.48,0,1.85,0.09c0.74,1.39,0.93,3.15,0.93,5.19v0.83c0,0.83,0.09,1.67,0.09,2.5v1.02
			c0,1.2,0.09,2.5,0.09,3.89v6.02c0,1.76-0.09,3.61-0.09,5.47c0,1.2-0.19,2.5-0.19,3.71v1.3c0,0.46-0.09,0.93-0.09,1.39
			c-5.56,0-8.9,0.37-14.27,0.56c0-0.93-0.09-1.95-0.09-2.87l-0.19-6.39c0-0.93-0.09-1.95-0.09-2.87c-0.83,3.8-5.28,8.15-10.01,8.15
			c-4.45,0-8.43-0.46-12.05-1.57c-0.37-0.09-10.47-2.6-13.81-11.12l-0.65-1.67c-0.37-1.02-0.56-2.13-0.74-3.24
			c-0.56-3.34-0.83-7.69-0.83-11.86v-5.93c0-0.56,0.09-1.02,0.09-1.57c0-1.48,0.19-3.06,0.28-4.54l0.19-2.22
			c0.09-1.57,0.46-3.24,0.93-4.82l0.56-2.04c0.19-0.65,0.37-1.3,0.65-1.95l0.74-1.85c2.69-5.37,11.21-8.8,25.3-8.8h3.8
			C36.54,111.37,37.56,111.47,38.58,111.56z"/>
	</g>
	<g style="clip-path:url(#SVGID_00000124129424616698471530000010217389874461960603_);">
		<path class="st1" d="M100.21,111.19l0.74,0.19c3.98,1.58,6.67,5.65,7.69,9.64l0.37,1.48c0.19,0.74,0.28,1.48,0.37,2.32l0.19,1.67
			c0.19,1.67,0.37,3.43,0.37,5.37v1.02c0,0.93,0.09,1.95,0.09,2.97v10.47c0,2.22-0.19,4.45-0.19,6.67v0.83
			c0,2.69-1.02,5.56-2.13,7.97c-3.71,6.67-10.75,8.53-19.74,8.53c-2.32,0-4.45,0-6.39-0.19c-9.82-0.74-15.1-4.63-17.24-11.4
			l-0.46-1.48c-0.56-1.67-1.11-4.73-1.11-7.04c0-0.83-0.19-1.76-0.19-2.59v-5.65c0-3.15,0.28-6.49,0.28-9.54
			c0-1.02,0.09-2.22,0.19-3.15l0.19-2.13c0-0.46,0.19-0.93,0.19-1.39l0.19-1.95c0.09-0.83,0.37-1.67,0.74-2.78l0.93-2.59
			c0.56-2.22,2.32-4.26,5.56-5.56l2.59-1.02c3.34-0.93,6.86-1.48,10.75-1.85c2.04-0.19,4.17-0.28,6.49-0.28h0.83
			C94.65,109.71,97.33,110.45,100.21,111.19z M78.89,142.14v1.39c0,0.65,0.09,1.3,0.09,1.94c0,0.65,0.09,1.3,0.09,1.95l0.19,2.6
			c0.09,1.11,0.28,2.32,0.28,3.43v0.93c0,0.28,0.09,0.56,0.09,0.83c0.65,3.8,1.95,4.73,7.69,4.73c1.2,0,2.32,0,3.52-0.28
			c6.02-1.02,6.3-6.95,6.3-13.07v-2.87c0-0.83-0.09-1.76-0.09-2.59v-1.3c0-1.85-0.28-3.71-0.28-5.56v-0.93
			c0-0.65-0.09-1.3-0.09-1.95v-1.02c0-0.37-0.09-0.65-0.09-1.02v-1.57c0-5.75-2.59-7.14-7.88-7.14h-0.56c-0.56,0-1.2-0.09-1.76-0.09
			c-6.95,0-7.6,3.52-7.6,8.15v1.3c0,1.39-0.09,2.97-0.09,4.63v2.78C78.71,138.99,78.89,140.56,78.89,142.14z"/>
	</g>
	<g style="clip-path:url(#SVGID_00000124129424616698471530000010217389874461960603_);">
		<path class="st1" d="M115.13,122.49l0.56-12.32l3.15-0.09c1.95-0.09,3.89-0.93,7.23-0.93h14.09c0.56,0.09,3.06,0.46,5.47,1.02
			l3.8,0.83c4.73,1.02,5.84,2.41,7.88,6.3l0.83,2.22c0.56,1.58,0.93,3.98,0.93,5.47c0,2.69-0.09,5.28-0.65,7.88l-0.65,3.15
			c-0.74,1.95-1.76,3.43-3.24,4.54l-1.3,0.93c-1.3,0.93-2.69,1.3-2.87,1.3c0.56,0.56,0.83,1.02,1.3,1.67l0.46,0.65
			c0.65,0.83,1.11,1.95,1.48,3.06l0.56,1.58l3.52,15.29l0.56,2.69c0.19,0.37,0.56,0.65,0.74,1.02l0.93,0.83
			c0.56,0.56,1.3,0.93,2.13,1.2l3.61,0.74c0.56,0,1.11,0.09,1.76,0.09c0.56,0,1.11,0,1.76-0.09l7.51,0.37l0.28,10.29
			c-1.58,0-2.13,0.09-2.13,0.09h-3.98c-4.82,0-10.84,0-15.2-2.22l-1.48-0.74c-2.13-1.11-4.26-0.83-7.41-7.23l-0.56-1.11l-0.83-2.5
			l-0.37-1.48l-0.37-1.57c-0.28-1.02-0.46-2.5-0.74-6.67c-0.28-2.13-0.19-3.98-1.2-6.49l-0.65-1.58c-1.11-2.78-3.15-5.84-5-5.84
			c-1.85,0-2.41,0.37-4.08,0.37h-1.11v4.45l0.56,4.45c0.28,1.95,0.37,3.71,0.37,5.75v7.13l-0.56,2.78c-5.28,0-10.01-1.3-13.25-1.48
			v-0.74c0-2.13-0.19-4.26-0.19-6.39v-1.39c0-1.3-0.28-2.13-0.28-4.26v-6.86c0-2.04,0.09-4.17,0.09-6.39v-3.89
			c0-0.56,0.09-1.11,0.09-1.67l0.09-13.62L115.13,122.49z M131.16,127.87v2.32c0,0.28,0.09,0.46,0.09,0.74
			c0,1.11,0.28,2.5,0.56,3.61h0.56c0.56,0,1.11-0.09,1.76-0.09c0.37,0,0.83-0.09,1.2-0.09c0.56,0,1.11-0.09,1.58-0.09h1.57
			c0.19,0,0.37,0.09,0.56,0.09c3.43,0,4.63-3.34,4.63-5.19v-5.19l-0.19-0.83c-0.09-0.37-0.19-0.74-0.37-1.11l-0.46-0.93l-0.65-0.74
			c-0.19-0.28,1.39-1.95-5.65-1.95c-0.65,0-1.3-0.09-1.85-0.09h-0.93c-0.74,0-1.39,0.09-2.13,0.19c0,0.74-0.09,1.39-0.09,2.13
			c0,0.46-0.19,0.93-0.19,1.39c0,0.65-0.09,1.39-0.09,2.04v3.06C131.06,127.4,131.16,127.59,131.16,127.87z"/>
	</g>
	<g style="clip-path:url(#SVGID_00000124129424616698471530000010217389874461960603_);">
		<path class="st1" d="M188.14,173c-3.89,0-7.78,0.46-11.77,0.46h-1.11c-3.99,0-3.71-0.37-8.06-0.65c0-1.3-0.09-2.87-0.09-4.54
			v-3.61c0-0.65,0.09-1.2,0.09-1.57v-1.95c0-1.3,0.09-2.69,0.09-3.98V145.2c0-0.65,0.09-1.39,0.09-2.04v-2.97
			c0-2.59,0.09-4.45,0.09-6.49v-5.75c0-0.74-0.09-1.3-0.09-1.95c0-1.48-0.09-2.59-0.09-4.08v-6.76c5.56,0,12.51-0.37,17.51-0.37
			h2.41c5.28,0,17.05,0.37,21.87,7.04l1.39,1.95c0.46,0.65,0.74,1.39,1.11,2.13l0.74,2.22c0.28,0.83,0.46,1.67,0.56,2.6l0.46,5.93
			c0,1.76,0.09,3.61,0.09,5.37v3.61c0,1.2,0.09,2.41,0.09,3.61c0,1.2-0.09,2.32-0.09,3.43v1.11c0,3.43-0.56,7.23-1.67,9.17
			l-0.93,1.2c-1.2,1.58-2.87,2.87-4.63,3.98c-0.74,0.46-7.32,4.63-16.31,4.63C189.35,172.9,188.79,173,188.14,173z M182.86,126.76
			v1.95c0,0.74,0.09,1.76,0.09,2.59c0,1.02,0.09,2.13,0.09,3.15v1.02c0,1.76,0.19,3.61,0.19,5.37v1.67c0,3.61,0.37,7.14,0.37,10.75
			v1.76c0,1.02,0.09,1.95,0.09,2.97l0.19,5.47h0.56c0.93,0,1.67,0.09,2.5,0.09h1.95c0.74,0,1.39-0.18,2.13-0.18h0.56
			c0.19,0,0.37-0.09,0.56-0.09h1.02c0.83,0,2.5-0.28,3.52-0.83l1.48-0.83c2.13-1.2,1.95-3.43,2.69-5.1l0.46-2.32
			c0-1.58-0.09-3.15-0.09-4.73v-1.3c0-3.15-0.18-6.58-0.46-9.45l-0.28-2.78c-0.09-1.11-0.28-2.13-0.46-3.06l-0.46-2.32
			c-0.19-0.74-1.02-3.52-2.32-4.36l-0.93-0.56l-1.3-0.56l-1.11-0.28c-1.11-0.28-2.78-0.56-4.17-0.56h-1.76
			c-1.48,0-3.43,0.28-5.19,0.46C182.77,125.37,182.86,126.11,182.86,126.76z"/>
	</g>
	<g style="clip-path:url(#SVGID_00000124129424616698471530000010217389874461960603_);">
		<path class="st1" d="M224.1,169.75l-2.41,0.28c0-0.65-0.09-1.2-0.09-1.76c0-3.71,0.46-5.47,0.46-8.9v-0.93
			c0-2.32,0.28-4.54,0.28-6.86v-3.61c0-1.48-0.18-2.87-0.18-4.36v-1.48c0-0.74-0.09-1.39-0.09-2.13s0-1.39,0.09-2.13l0.28-2.97
			c0.46-2.5,0.28-6.12,0.28-8.99v-0.74c0-0.93,0-1.85-0.09-2.78l-0.18-2.13c-0.09-1.58-0.56-3.24-0.74-4.91
			c-0.09-0.74-0.09-1.39,0.09-2.13l0.09-1.48c1.2-0.09,6.12-0.37,7.41-0.37c1.3,0,3.71,0.28,4.17,0.46c0.19,0.65,0.37,1.02,0.37,1.3
			c0,1.2,0.19,2.41,0.19,3.61v0.74c0,0.74,0.09,1.48,0.09,2.22c0,0.93,0.09,1.95,0.09,2.87c0,0.46-0.09,0.93-0.09,1.39l-0.19,4.36
			v0.74c0,3.15-0.46,6.3-0.46,9.45c0,1.02-0.18,1.95-0.18,2.97c0,1.48-0.09,2.87-0.09,4.36c0,1.39,0.09,2.87,0.09,4.26
			c0,0.46,0.09,1.02,0.09,1.48c0,3.71,0.28,8.53,0.56,12.88l0.28,4.26C232.44,168.73,224.47,169.38,224.1,169.75z"/>
	</g>
	<g style="clip-path:url(#SVGID_00000124129424616698471530000010217389874461960603_);">
		<path class="st1" d="M282.85,111.47v13.44c-0.74,0.09-1.57,0.09-2.6,0.09h-1.85c-0.46,0-0.74-0.09-1.3-0.09h-1.02
			c-3.34,0-3.98,0.09-6.3,0.09v12.05c0,2.41,0.09,4.63,0.09,6.77v1.57c0,9.36,0.65,13.25,0.37,22.52c-0.19,0-2.78,0.93-7.69,1.02
			c-4.73,0.09-6.58,0-6.58-1.02c0-2.22,0.19-4.26,0.19-6.49c0-1.85,0.19-3.8,0.19-5.74c0-1.3,0.09-2.41,0.09-3.8
			c0-0.65,0.09-1.39,0.09-2.13V138.9c0-1.95-0.09-3.52-0.09-5.28v-2.69c0-1.2,0.09-2.41,0.09-3.61v-0.93
			c-2.13-0.19-3.34-0.09-5.28-0.28c-0.65,0-8.9,1.02-8.9-3.34c0.28-2.5,0.09-6.95,0.65-9.64l0.28-1.39c0.37-0.28,1.2-0.46,2.22-0.46
			h3.24c1.02,0,2.04,0.09,3.06,0.09c5.47,0,9.92,0.28,17.61,0.28C274.51,111.65,276.08,111.47,282.85,111.47z"/>
	</g>
	<g style="clip-path:url(#SVGID_00000124129424616698471530000010217389874461960603_);">
		<path class="st1" d="M297.4,111.93l3.15-0.28c0.65-0.09,1.2-0.09,1.85-0.09h3.8c0.46,0,0.83,0,1.3-0.09l4.91-0.28
			c2.41-0.09,5.37-0.65,8.62-0.65h1.58c2.69,0,6.76-0.37,10.29-0.37c1.11,0,0.93,6.12,0.93,7.78c0,0.93,0.09,1.76-0.65,2.13
			c-0.19,0.09-0.46,0.09-0.65,0.09l-1.85,0.28c-0.65,0.09-1.3,0.09-1.94,0.09c-0.65,0-1.2,0.09-1.85,0.09h-1.85
			c-0.37,0-0.83,0.09-1.2,0.09l0.65,2.41l1.02,3.71l0.56,1.76l0.56,1.85c0.28,0.83,0.56,1.67,0.74,2.5l0.93,3.8l1.02,4.45l0.65,3.61
			c0.19,1.02,0.46,2.04,0.74,2.97l0.37,1.2l1.2,3.61l0.65,2.04c0.46,1.48,0.93,2.78,1.48,4.17l0.74,1.95
			c0.28,0.65,0.46,1.2,0.65,1.85l1.57,4.45c0.19,0.46,0.37,0.93,0.46,1.39l0.19,0.83c0,0.56-0.09,1.2-0.09,1.76
			c0,0.19,0.09,0.37,0.09,0.56l0.28,1.2l0.65,2.69c0.09,0.46,0.46,1.11,0.65,1.57c-1.2,1.2-5.93,1.67-8.9,2.22
			c-0.37,0-0.74-0.09-1.2-0.09l-1.11,0.28l-1.67,0.46c-0.28-0.46-0.56-1.02-0.74-1.58l-0.65-1.67c-0.19-0.37-0.28-0.74-0.37-1.11
			l-0.65-1.85l-0.65-1.95l-0.56-2.04c0-1.48-0.93-3.89-1.39-5.56c-0.37,0-0.74,0.09-1.11,0.09c-0.37,0-0.74,0.09-1.2,0.09h-5.28
			c-2.87,0-6.49-0.37-9.36,0.37c-0.28,0.74-0.65,1.76-0.83,2.97l-0.37,1.95c-0.09,0.65-0.37,1.39-0.46,2.13l-0.37,2.13
			c-0.83,4.91-1.67,6.12-4.63,6.12c-2.13,0-8.9-0.74-8.9-2.32v-0.56c0-1.67,0.74-3.71,1.11-5.65l0.28-1.58
			c0.19-1.2,0.56-2.5,0.83-3.8l0.83-3.98l0.83-4.17l0.83-3.8c0.28-1.3,0.46-2.69,0.74-3.89l0.46-2.04l1.3-6.3l0.83-3.43l2.04-7.41
			l0.93-3.71c0.19-0.56,0.28-1.2,0.37-1.76l0.37-1.76c0-0.19,0.09-0.37,0.09-0.56c-0.93-0.56-2.5-0.37-3.8-0.37
			c-0.65,0-1.3,0.19-2.04,0.19c-2.78,0.19-5.75,0.37-7.32,0.37v-5.47c0.19-1.85,0.28-4.54,0.93-5.75h1.2
			C292.49,112.3,294.9,111.93,297.4,111.93z M305.92,156.22c1.11,0,2.13,0.09,3.34,0.09h11.03c-0.28-0.46-0.37-1.11-0.46-1.57
			l-0.74-2.69c-0.28-0.93-0.37-1.76-0.65-2.69l-0.28-1.02c-0.19-0.56-0.37-1.02-0.46-1.57l-0.74-3.24
			c-0.19-0.74-0.56-1.39-0.56-2.13l-0.74-3.15c-0.09-0.56-0.37-1.02-0.46-1.57l-0.28-1.11l-0.37-1.57l-0.37-1.67
			c-0.09-0.56-0.37-1.02-0.46-1.57l-0.19-1.11c-0.19-1.11-0.65-3.89-1.67-4.91c-0.19,0.93-0.46,1.85-0.74,2.78l-0.28,1.02
			l-1.11,4.17l-0.93,3.61c-0.46,1.95-1.39,4.26-1.39,6.39l-1.02,4.26l-0.56,2.69c-0.09,0.46-0.37,1.11-0.37,1.58l-0.93,5H305.92z"/>
	</g>
</g>
<g>
	<defs>
		<rect id="SVGID_00000034770004189686760570000008119634870982350267_" x="-39.26" y="-104.72" width="454.02" height="454.02"/>
	</defs>
	<clipPath id="SVGID_00000024720989581808123750000008750317287920012973_">
		<use xlink:href="#SVGID_00000034770004189686760570000008119634870982350267_"  style="overflow:visible;"/>
	</clipPath>
	<g style="clip-path:url(#SVGID_00000024720989581808123750000008750317287920012973_);">
		<defs>
			<rect id="SVGID_00000007413225859594965290000012316830325242689154_" x="-39.26" y="-104.72" width="454.02" height="454.02"/>
		</defs>
		<clipPath id="SVGID_00000152971326717902414850000007136361013008464045_">
			<use xlink:href="#SVGID_00000007413225859594965290000012316830325242689154_"  style="overflow:visible;"/>
		</clipPath>
		<g style="clip-path:url(#SVGID_00000152971326717902414850000007136361013008464045_);">
			<defs>
				
					<rect id="SVGID_00000010289963958705376770000000886920628350128802_" x="194.09" y="-35.7" transform="matrix(0.172 -0.9851 0.9851 0.172 152.8695 284.8038)" width="103.52" height="174.34"/>
			</defs>
			<clipPath id="SVGID_00000064346042099216638090000002979462719859371936_">
				<use xlink:href="#SVGID_00000010289963958705376770000000886920628350128802_"  style="overflow:visible;"/>
			</clipPath>
			<g style="clip-path:url(#SVGID_00000064346042099216638090000002979462719859371936_);">
				<defs>
					
						<rect id="SVGID_00000130646446395757385470000006165460525549574302_" x="194.09" y="-35.7" transform="matrix(0.172 -0.9851 0.9851 0.172 152.8695 284.8038)" width="103.52" height="174.34"/>
				</defs>
				<clipPath id="SVGID_00000166655607306212049190000007570369807713186457_">
					<use xlink:href="#SVGID_00000130646446395757385470000006165460525549574302_"  style="overflow:visible;"/>
				</clipPath>
				<path style="clip-path:url(#SVGID_00000166655607306212049190000007570369807713186457_);fill:#F72A7B;" d="M331.48,65.43
					c-0.01-0.05-0.04-0.08-0.09-0.11c-11.81-6.43-26.97-8.7-42.68-6.41c-6.48,0.94-12.7,2.57-18.58,4.55
					c0.05-1.26,0.09-2.52,0.12-3.79c0.06-2.34,0.09-4.68,0.08-7.02c0-1.35-0.02-2.7-0.04-4.05c0-0.02,0-0.04,0-0.06
					c-0.02-1.36-0.06-2.71-0.11-4.07c-0.26-7.5-0.85-14.96-1.76-22.33c-0.58-4.63-1.32-9.49-3.51-13.59
					c-1.9-3.57-5.62-7.29-10.36-7.03c-5.14,0.28-9.27,5.1-12.63,9.77c-6.68,9.29-14.53,26.2-21.52,42.61l0,0
					c-10.02-6.3-20.88-10.85-32.29-13.52c-7.67-1.79-13.92-2.31-19.68-1.62c-4.37,0.52-7.49,2.22-9.03,4.92
					c-0.89,1.56-1.24,3.41-1.08,5.5c0,0,0,0.01,0,0.01c-0.31,2.14-0.35,4.77-0.23,7.51c0.02,0.5,0.05,0.99,0.08,1.5
					c0.02,0.39,0.05,0.78,0.08,1.17c0.01,0.1,0.02,0.2,0.02,0.3c0.02,0.31,0.05,0.61,0.08,0.91c0.01,0.1,0.02,0.2,0.03,0.3
					c0.07,0.78,0.15,1.56,0.23,2.32c0.01,0.09,0.02,0.18,0.03,0.27c0.03,0.29,0.07,0.59,0.11,0.87c0.01,0.1,0.02,0.2,0.04,0.3
					c0.04,0.33,0.08,0.65,0.12,0.97c0,0.04,0.01,0.08,0.01,0.11c0.05,0.36,0.1,0.71,0.15,1.06c0.01,0.08,0.02,0.16,0.04,0.24
					c0.04,0.26,0.08,0.52,0.12,0.78c0.01,0.05,0.02,0.1,0.02,0.15c0.12,0.77,0.24,1.49,0.35,2.15c0.01,0.08,0.03,0.16,0.04,0.24
					c0.03,0.19,0.07,0.38,0.1,0.56c0,0.02,0.01,0.05,0.01,0.07c0.02,0.11,0.04,0.23,0.06,0.34c0.02,0.13,0.05,0.25,0.07,0.37
					c0.23,1.19,0.44,2.04,0.57,2.4c0.01,0.03,0.03,0.05,0.05,0.07C172,84.1,190.9,94.02,208.94,97.17
					c4.16,0.73,8.28,1.09,12.25,1.02c6.51-0.13,12.88-1.28,19.13-2.8c0.01,0,0.01,0,0.02,0c0.02,0,0.03-0.01,0.05-0.01
					c2.02,0.27,5.08,0.73,8.04,1.17c2.98,0.45,6.06,0.91,8.08,1.17c10.25,1.35,20.85,2.75,31.27,1.78
					c6.09-0.57,24.64-2.3,32.35-10.34c0,0,0,0,0-0.01c0.02-0.02,0.03-0.04,0.04-0.07c0.01-0.03,0.43-1.42,1.56-4.16
					c0.09-0.21,0.18-0.43,0.27-0.65l0,0c0.09-0.2,0.18-0.41,0.27-0.63c0.12-0.27,0.24-0.56,0.37-0.85c0,0,0,0,0,0
					c0.99-2.24,2.32-5.08,4.09-8.51c0.52-1.02,1.08-2.08,1.69-3.21l0,0c0.28-0.53,0.58-1.07,0.88-1.62
					c0.15-0.27,0.29-0.54,0.44-0.81c0.54-0.98,1.11-1.99,1.71-3.05C331.48,65.53,331.49,65.48,331.48,65.43z"/>
				<path style="clip-path:url(#SVGID_00000166655607306212049190000007570369807713186457_);fill:#FFCB45;" d="M180.79,78.33
					c-4.26-2.26-8.3-4.96-11.98-8.11l0.74,1.59l3.2,6.88l6.63-0.29L180.79,78.33z M209.54,86.82c-3.1-0.28-6.24-0.76-9.38-1.45
					l0.5,0.86l3.04,5.2l4.99-3.95L209.54,86.82z M196.94,84.6c-4.12-1.08-8.21-2.52-12.17-4.31l0.72,1.12l3.81,5.9l6.43-2.28
					L196.94,84.6z M235.99,84.14c-2.84,0.79-5.8,1.49-8.95,2.06c-0.29,0.05-0.58,0.1-0.87,0.15l0.61,0.63l4.22,4.36l4.34-6.26
					L235.99,84.14z M222.42,86.82c-3.08,0.3-6.3,0.38-9.59,0.22l0.61,0.77l3.88,4.85l4.4-5.04L222.42,86.82z M284.55,64.98
					c-5.41,1.32-10.43,3.26-15.43,5.46l0.48,0.58l6.92,8.33l7.55-13.51L284.55,64.98z M325.76,68c-6.35-2.11-12.09-3.45-17.35-4.16
					l0.28,0.76l5.89,15.76l10.66-11.78L325.76,68z M250.24,79.08c-3.23,1.37-6.6,2.67-10.17,3.83l0.69,0.54l5.22,4.09l3.76-7.46
					L250.24,79.08z M266.32,71.7c-4.26,1.95-8.54,4.05-13.06,6.06l0.64,0.51l5.68,4.53l6.07-10L266.32,71.7z M285.99,66.84
					l-7.42,13.28l-0.43,0.76c5.15-0.54,10.33-0.76,15.51-0.64l-0.41-0.72L285.99,66.84z M305.93,63.55
					c-6.99-0.7-13.14-0.29-18.82,0.85l0.37,0.65l7.57,13.23l10.4-14.08L305.93,63.55z M224.51,87.74l-5.22,5.98l-0.65,0.74
					c3.75-0.12,7.51-0.55,11.22-1.2l-0.61-0.63L224.51,87.74z M306.87,65.94l-10.13,13.71l-0.51,0.68
					c5.61,0.24,11.19,0.87,16.71,1.88l-0.29-0.77L306.87,65.94z M315.97,82.07l-0.56,0.61c2.22,0.45,4.42,0.96,6.61,1.54
					c1.02-2.42,2.54-5.74,4.72-9.96l-0.56-3.48L315.97,82.07z M252.31,79.78l-4.08,8.11l-0.45,0.9c1.06-0.32,2.13-0.65,3.19-0.98
					c2.67-0.83,5.16-1.97,7.71-2.94l-0.66-0.52L252.31,79.78z M238.45,84.41l-5.18,7.46l-0.6,0.86c1.45-0.29,2.88-0.61,4.31-0.96
					c2.71-0.66,5.4-1.39,8.08-2.18l-0.7-0.55L238.45,84.41z M165.73,67.39c-2.81-2.77-5.35-5.83-7.55-9.21
					c0.21,3.42,0.64,6.91,1.07,9.76l5.5-0.46L165.73,67.39z M166.1,69.54l-5.89,0.5l-0.61,0.05c0.03,0.15,0.05,0.31,0.08,0.45
					c0.08,0.07,0.15,0.14,0.22,0.2c3.17,2.83,6.69,5.36,10.33,7.69l-0.58-1.24L166.1,69.54z M268.22,72.76l-6.2,10.22l-0.56,0.91
					c0.53-0.16,1.07-0.31,1.62-0.44c4.02-0.95,8.08-1.69,12.18-2.23l-0.54-0.65L268.22,72.76z M182.3,80.44l-6.86,0.3l-1.33,0.06
					c2.47,1.46,4.96,2.86,7.42,4.22c1.75,0.96,3.59,1.86,5.47,2.7l-0.72-1.11L182.3,80.44z M211.1,88.36l-5.5,4.35l-0.75,0.6
					c1.04,0.2,2.08,0.39,3.11,0.55c2.67,0.41,5.36,0.61,8.04,0.64l-0.58-0.73L211.1,88.36z M198.27,86.43l-6.7,2.38l-1.05,0.37
					c3.71,1.43,7.57,2.6,11.4,3.49l-0.5-0.86L198.27,86.43z M214.46,83.36c-1.98-0.08-3.97-0.25-5.97-0.5
					c0-0.01,0.01-0.01,0.01-0.02c0.67-1.63,1.38-3.39,2.13-5.25c0.15-0.37,0.3-0.75,0.46-1.13c0.05-0.12,0.1-0.24,0.14-0.36
					c0.14-0.34,0.28-0.68,0.41-1.02c0.04-0.09,0.07-0.18,0.11-0.27c0.35-0.86,0.7-1.74,1.07-2.62c0.03-0.07,0.05-0.13,0.08-0.19
					c0.56-1.38,1.14-2.8,1.73-4.24c0.01-0.01,0.01-0.03,0.02-0.04c0.6-1.47,1.22-2.96,1.84-4.48c0.01-0.01,0.01-0.02,0.01-0.03
					c0.29-0.69,0.57-1.39,0.86-2.08l3.58,18.07l11.99-24.21l6.11,19.69l11.35-23.58l6.16,15.66l8.94-17.48l4.76,10.4
					c-0.03,1.26-0.07,2.53-0.12,3.79c-7.79,2.62-15,5.86-21.46,8.97c-1.4,0.68-2.83,1.38-4.21,2.06
					C235.2,79.07,225.62,83.81,214.46,83.36z"/>
				<path style="clip-path:url(#SVGID_00000166655607306212049190000007570369807713186457_);fill:#A52B4D;" d="M278.57,80.13
					l-0.86,1.55c5.43-0.59,10.91-0.81,16.38-0.67l-0.84-1.47C288.35,79.44,283.44,79.64,278.57,80.13z M160.39,70.2
					c-0.06-0.05-0.12-0.11-0.18-0.17l-0.61,0.05c0.1,0.59,0.2,1.13,0.3,1.61c3.35,2.93,7.06,5.54,10.9,7.94l-1.14-2.45
					C166.39,75.05,163.24,72.75,160.39,70.2z M296.74,79.65l-1.04,1.41c5.89,0.23,11.76,0.89,17.55,1.96l-0.59-1.58
					C307.4,80.5,302.08,79.9,296.74,79.65z M181.87,84.39c-2.13-1.17-4.29-2.38-6.44-3.64l-2.64,0.12c2.78,1.68,5.61,3.26,8.38,4.79
					c2.07,1.14,4.26,2.2,6.54,3.17l-1.43-2.22C184.76,85.9,183.28,85.17,181.87,84.39z M321.74,84.9c0.17-0.42,0.36-0.87,0.57-1.35
					c-2.1-0.55-4.21-1.04-6.34-1.49l-1.13,1.25C317.15,83.78,319.46,84.31,321.74,84.9z M255.87,85.2
					c-1.66,0.67-3.37,1.37-5.11,1.91c-0.83,0.26-1.67,0.52-2.52,0.78l-0.9,1.79c1.31-0.39,2.6-0.79,3.85-1.18
					c1.81-0.56,3.55-1.27,5.23-1.95c0.99-0.4,1.96-0.79,2.93-1.16l-1.31-1.05C257.3,84.62,256.57,84.91,255.87,85.2z M236.81,91.07
					c-1.21,0.29-2.38,0.56-3.54,0.8l-1.19,1.72c1.65-0.32,3.34-0.69,5.08-1.11c2.95-0.71,5.83-1.51,8.61-2.33l-1.4-1.1
					C241.91,89.76,239.39,90.44,236.81,91.07z M219.29,93.72l-1.31,1.49c3.91-0.08,8.03-0.52,12.48-1.32l-1.22-1.26
					C225.74,93.23,222.43,93.59,219.29,93.72z M191.57,88.81l-2.1,0.74c4.13,1.64,8.51,2.99,12.95,3.99l-1.01-1.72
					C198.06,91.01,194.75,90,191.57,88.81z M208.07,93.13c-0.82-0.13-1.64-0.27-2.47-0.43l-1.5,1.19c0.73,0.15,1.46,0.29,2.2,0.42
					c0.52,0.09,1.03,0.18,1.55,0.26c2.82,0.44,5.72,0.65,8.74,0.66l-1.17-1.46C212.89,93.71,210.45,93.5,208.07,93.13z
					 M262.91,82.76c-0.3,0.07-0.6,0.15-0.89,0.23l-1.13,1.86c0.77-0.26,1.55-0.49,2.36-0.68c4.14-0.98,8.33-1.74,12.56-2.27
					l-1.09-1.32C270.74,81.11,266.8,81.83,262.91,82.76z M158.1,56.68c0.04,0.99,0.11,1.99,0.18,2.99c1.98,2.9,4.17,5.49,6.46,7.81
					l2.02-0.17C163.47,64.14,160.54,60.6,158.1,56.68z M325.24,68.58l1.06-1.17c-6.44-2.17-12.46-3.61-18.19-4.34l0.57,1.54
					C313.72,65.3,319.19,66.58,325.24,68.58z M185.95,81.6c3.18,1.36,6.47,2.5,9.79,3.42l2.47-0.88c-4.86-1.22-9.66-2.92-14.24-5.11
					l1.53,2.37C185.65,81.47,185.8,81.53,185.95,81.6z M203.3,86.74c1.8,0.31,3.61,0.56,5.41,0.75l1.66-1.31
					c-3.54-0.29-7.14-0.85-10.71-1.67l1.01,1.73C201.54,86.41,202.42,86.58,203.3,86.74z M227.18,86.9
					c2.86-0.52,5.57-1.14,8.17-1.84l1.3-1.87c-3.06,0.89-6.29,1.66-9.72,2.28c-0.45,0.08-0.9,0.16-1.36,0.23l1.22,1.27
					C226.92,86.94,227.05,86.93,227.18,86.9z M249.73,80.08l1.01-2c-3.6,1.55-7.35,3.01-11.37,4.3l1.38,1.08
					C243.89,82.42,246.86,81.28,249.73,80.08z M284.07,65.83l0.96-1.71c-5.78,1.34-11.11,3.4-16.39,5.74l0.96,1.16
					C274.3,68.94,279.03,67.11,284.07,65.83z M261.52,74.74c1.39-0.66,2.77-1.3,4.14-1.94L267,70.6c-2.03,0.92-4.05,1.87-6.09,2.84
					c-2.71,1.28-5.45,2.57-8.28,3.82l1.28,1.02C256.49,77.11,259.02,75.92,261.52,74.74z M305.44,64.22l1-1.35
					c-4.72-0.5-9.25-0.52-13.66-0.06c-2.08,0.22-4.09,0.54-6.05,0.94l0.75,1.32C292.93,63.99,298.8,63.59,305.44,64.22z
					 M179.38,78.4l3.02-0.14c-5.21-2.65-10.1-5.93-14.42-9.83l1.58,3.39C172.81,74.45,176.16,76.62,179.38,78.4z M221.73,87.62
					l1.39-1.6c-3.51,0.39-7.17,0.48-10.89,0.27l1.21,1.51C216.25,87.91,219.02,87.85,221.73,87.62z M268.95,47.99
					c-0.25,2.34,0.36,4.35,1.38,4.66c-0.01-2.73-0.06-5.46-0.15-8.19C269.58,45.23,269.11,46.51,268.95,47.99z M257.7,55.77
					c1.13,0.12,2.26-1.79,2.53-4.26c0.27-2.48-0.43-4.58-1.56-4.7c-1.13-0.12-2.26,1.79-2.53,4.26
					C255.87,53.54,256.57,55.65,257.7,55.77z M240.56,61.16c1.14,0.07,2.18-1.89,2.33-4.37c0.15-2.49-0.64-4.56-1.78-4.63
					c-1.14-0.07-2.18,1.89-2.33,4.37C238.63,59.01,239.43,61.08,240.56,61.16z M222.71,67.29c1.14,0.07,2.18-1.89,2.33-4.37
					c0.15-2.49-0.64-4.56-1.78-4.63c-1.14-0.07-2.18,1.89-2.33,4.37C220.78,65.16,221.57,67.22,222.71,67.29z M158.51,48.99
					c0.05,0,0.11,0.02,0.14,0.06s0.05,0.09,0.05,0.14c0.02,0.2,0.04,0.41,0.07,0.62c0.01,0.08,0.02,0.16,0.03,0.23
					c0.02,0.13,0.04,0.26,0.06,0.39c0.02,0.1,0.04,0.2,0.06,0.3c0.02,0.11,0.04,0.21,0.07,0.32c0.03,0.12,0.05,0.23,0.08,0.35
					c0.02,0.08,0.04,0.17,0.06,0.26c0.04,0.13,0.07,0.27,0.11,0.41c0.01,0.05,0.03,0.1,0.04,0.15c0.17,0.57,0.36,1.15,0.59,1.74
					c1.19-3.05,3.31-5.74,6.58-7.66c3.37-1.98,7.52-2.9,12.33-2.73c5.73,0.21,11.54,1.68,16.53,3.04
					c8.37,2.29,16.37,5.99,23.57,10.87c0.5-1.19,1.01-2.39,1.52-3.58l0,0c-10.02-6.3-20.88-10.85-32.29-13.52
					c-7.67-1.79-13.92-2.31-19.68-1.62c-4.37,0.52-7.49,2.22-9.03,4.92c-0.89,1.56-1.24,3.41-1.08,5.5c0-0.04,0.01-0.09,0.05-0.12
					C158.41,49.01,158.46,48.99,158.51,48.99z M218.03,59.53c-7.09-4.86-15-8.55-23.29-10.82c-4.87-1.33-10.54-2.77-16.03-2.97
					c-4.33-0.16-8.19,0.68-11.15,2.42c-3.53,2.07-5.51,5.21-6.29,8.73c0.16,0.29,0.33,0.57,0.5,0.86c0.03,0.06,0.07,0.11,0.11,0.17
					c0.16,0.26,0.33,0.53,0.5,0.78c0.05,0.08,0.1,0.16,0.16,0.23c0.17,0.25,0.35,0.5,0.53,0.75c0.06,0.08,0.12,0.17,0.19,0.26
					c0.18,0.25,0.37,0.49,0.56,0.73c0.07,0.09,0.14,0.17,0.21,0.26c0.2,0.24,0.39,0.49,0.6,0.73c0.06,0.07,0.13,0.15,0.2,0.23
					c0.22,0.25,0.44,0.51,0.67,0.76c0,0,0.01,0.01,0.01,0.01c0.54,0.58,1.11,1.16,1.7,1.74c0.04,0.04,0.07,0.07,0.11,0.11
					c0.21,0.19,0.42,0.39,0.63,0.58c0.14,0.13,0.29,0.26,0.43,0.4c0.19,0.17,0.4,0.35,0.6,0.52c0.18,0.15,0.35,0.3,0.53,0.45
					c0.19,0.16,0.39,0.32,0.59,0.48c0.2,0.16,0.4,0.32,0.6,0.48c0.19,0.15,0.39,0.3,0.58,0.45c0.22,0.17,0.44,0.34,0.67,0.51
					c0.19,0.14,0.38,0.28,0.58,0.42c0.25,0.18,0.5,0.36,0.76,0.54c0.18,0.13,0.36,0.25,0.55,0.38c0.3,0.2,0.6,0.4,0.9,0.6
					c0.16,0.1,0.31,0.21,0.47,0.31c0.47,0.3,0.94,0.6,1.43,0.9c9.76,6.01,20.88,9.94,31.86,11.32c0-0.01,0.01-0.01,0.01-0.02
					c0.33-0.82,0.68-1.67,1.03-2.54c0.36-0.88,0.72-1.78,1.1-2.7c0.15-0.37,0.3-0.75,0.46-1.13c0.05-0.12,0.1-0.24,0.14-0.36
					c0.07-0.17,0.14-0.34,0.21-0.51c0.07-0.17,0.14-0.34,0.21-0.51c0.04-0.09,0.07-0.18,0.11-0.27c0.35-0.86,0.7-1.74,1.07-2.62
					c0.03-0.07,0.05-0.13,0.08-0.19c0.56-1.38,1.14-2.8,1.73-4.24c0-0.01,0.01-0.01,0.01-0.02c0-0.01,0.01-0.01,0.01-0.02
					c0.3-0.73,0.6-1.48,0.91-2.22c0.31-0.74,0.62-1.5,0.93-2.25c0.01-0.01,0.01-0.02,0.01-0.03c0.25-0.62,0.51-1.24,0.77-1.87
					C217.52,60.74,217.77,60.13,218.03,59.53z M320.17,88.96c-0.02-0.06-0.07-0.11-0.14-0.12c-13.97-2.65-36.25-4.47-53.09-0.87
					c-5.17,1.1-10.34,2.57-15.35,3.99c-3.68,1.04-7.49,2.13-11.26,3.05c0,0-0.01,0-0.02,0l-0.08,0.02c-0.1,0.02-0.15,0.12-0.13,0.22
					c0.02,0.07,0.08,0.12,0.15,0.14c0.02,0,0.04,0,0.06,0c0.01,0,0.01,0,0.02,0c0.02,0,0.03-0.01,0.05-0.01
					c2.02,0.27,5.08,0.73,8.04,1.17c2.98,0.45,6.06,0.91,8.08,1.17c10.25,1.35,20.85,2.75,31.27,1.78
					c6.09-0.57,24.64-2.3,32.35-10.34c0,0,0,0,0-0.01C320.18,89.09,320.19,89.02,320.17,88.96z"/>
				<path style="clip-path:url(#SVGID_00000166655607306212049190000007570369807713186457_);fill:#A52B4D;" d="M198.42,59.93
					c0.04-0.09,0.01-0.2-0.08-0.24c-3.16-1.6-6.69-2.57-10.22-2.82c-0.1-0.01-0.18,0.07-0.19,0.17c-0.01,0.1,0.07,0.18,0.17,0.19
					c3.48,0.24,6.97,1.21,10.08,2.78c0.02,0.01,0.03,0.01,0.05,0.02C198.31,60.04,198.39,60.01,198.42,59.93z M213.75,64.17
					c0.06-0.08,0.04-0.19-0.04-0.25c-9.78-7.41-21.93-11.58-34.2-11.72c-0.1,0-0.18,0.08-0.18,0.18c0,0.1,0.08,0.18,0.18,0.18
					c12.2,0.14,24.27,4.28,33.99,11.65c0.02,0.02,0.05,0.03,0.08,0.04C213.64,64.25,213.7,64.23,213.75,64.17z M167.2,53.42
					c1.91-1.75,4.57-2.79,8.38-3.26c11.39-1.43,22.76,2.74,30.32,5.99c0.09,0.04,0.2,0,0.24-0.09c0.04-0.09,0-0.2-0.09-0.24
					c-7.6-3.27-19.03-7.45-30.51-6.02c-3.89,0.49-6.62,1.56-8.58,3.36c-0.07,0.07-0.08,0.18-0.01,0.26c0.03,0.03,0.07,0.05,0.1,0.05
					C167.1,53.47,167.16,53.46,167.2,53.42z M274.06,89.25c12.23-1.14,24.57,0.69,36.5,2.45c0.1,0.01,0.19-0.06,0.21-0.15
					c0.01-0.1-0.05-0.19-0.15-0.21l0,0c-11.95-1.77-24.31-3.59-36.58-2.45c-0.1,0.01-0.17,0.1-0.16,0.2
					c0.01,0.08,0.07,0.15,0.15,0.16C274.03,89.25,274.05,89.25,274.06,89.25z M250.23,95.36c-0.07-0.01-0.13-0.06-0.15-0.14
					c-0.02-0.1,0.04-0.2,0.13-0.22c16.06-3.75,32.53-4.91,48.96-3.45c0.09,0.01,0.17,0.1,0.16,0.2c-0.01,0.1-0.1,0.17-0.2,0.16
					c-16.39-1.45-32.83-0.29-48.85,3.45C250.27,95.37,250.25,95.36,250.23,95.36z"/>
			</g>
		</g>
	</g>
</g>
<g>
	<defs>
		<rect id="SVGID_00000119079530670663083880000004170363778915906204_" x="-39.26" y="-104.72" width="454.02" height="454.02"/>
	</defs>
	<clipPath id="SVGID_00000175304827304929621610000016654900686097610898_">
		<use xlink:href="#SVGID_00000119079530670663083880000004170363778915906204_"  style="overflow:visible;"/>
	</clipPath>
	<g style="clip-path:url(#SVGID_00000175304827304929621610000016654900686097610898_);">
		<defs>
			<rect id="SVGID_00000033346326757217910760000015740003491093620135_" x="-39.26" y="-104.72" width="454.02" height="454.02"/>
		</defs>
		<clipPath id="SVGID_00000023983872701726816650000016186033444409106367_">
			<use xlink:href="#SVGID_00000033346326757217910760000015740003491093620135_"  style="overflow:visible;"/>
		</clipPath>
		<g style="clip-path:url(#SVGID_00000023983872701726816650000016186033444409106367_);">
			<defs>
				
					<rect id="SVGID_00000036943936692839063770000005741307070647865777_" x="326.73" y="134.36" transform="matrix(0.8204 -0.5718 0.5718 0.8204 -27.7428 228.5318)" width="46.31" height="48.13"/>
			</defs>
			<clipPath id="SVGID_00000034081049529802869720000017725186705771616644_">
				<use xlink:href="#SVGID_00000036943936692839063770000005741307070647865777_"  style="overflow:visible;"/>
			</clipPath>
			<g style="clip-path:url(#SVGID_00000034081049529802869720000017725186705771616644_);">
				<defs>
					
						<rect id="SVGID_00000054948167181555387800000000613505071460708522_" x="326.73" y="134.36" transform="matrix(0.8204 -0.5718 0.5718 0.8204 -27.7428 228.5318)" width="46.31" height="48.13"/>
				</defs>
				<clipPath id="SVGID_00000001630813391882838920000016975002294434350996_">
					<use xlink:href="#SVGID_00000054948167181555387800000000613505071460708522_"  style="overflow:visible;"/>
				</clipPath>
				<path style="clip-path:url(#SVGID_00000001630813391882838920000016975002294434350996_);fill:#FFCB45;" d="M360.22,148.73
					c0.36-8.42-4.94-9.53-7.32-8.48c-2.38,1.05-3.85,3.56-4.37,6.11c-0.52,2.55-0.25,5.18-0.07,7.78c0.65,9.16,0.2,18.39-1.34,27.45
					c-0.13,0.77,0.9,1.14,1.29,0.47C354.82,171.01,359.7,160.91,360.22,148.73z M360.04,137.7c0.19-0.45,0.07-0.97-0.05-1.44
					c-0.33-1.27-0.65-2.55-0.98-3.82c-0.28-1.11-0.58-2.25-1.3-3.15c-1.35-1.71-4.01-2.04-5.94-1.03c-1.93,1.01-3.13,3.11-3.44,5.27
					c-0.17,1.19-0.08,2.45,0.53,3.48c0.61,1.03,1.81,1.76,2.99,1.56c1.72-0.29,2.63-2.16,4.42-1.48
					C357.21,137.44,359.16,139.81,360.04,137.7L360.04,137.7z M346.45,189.53c-1.32,0.42-2.91-0.33-3.43-1.61
					c-0.58-1.41,0.26-3.23,1.71-3.71c1.45-0.47,3.2,0.5,3.56,1.99c0.35,1.49-0.77,3.15-2.28,3.37"/>
			</g>
		</g>
	</g>
</g>
<g>
	<defs>
		<rect id="SVGID_00000089538701743757559280000010443294906156039084_" x="-39.26" y="-104.72" width="454.02" height="454.02"/>
	</defs>
	<clipPath id="SVGID_00000013168793040745471880000005686752837031567522_">
		<use xlink:href="#SVGID_00000089538701743757559280000010443294906156039084_"  style="overflow:visible;"/>
	</clipPath>
	<g style="clip-path:url(#SVGID_00000013168793040745471880000005686752837031567522_);">
		<defs>
			<rect id="SVGID_00000088125476729663565980000007851648184088166283_" x="-39.26" y="-104.72" width="454.02" height="454.02"/>
		</defs>
		<clipPath id="SVGID_00000135683156502221981910000007379464450155806616_">
			<use xlink:href="#SVGID_00000088125476729663565980000007851648184088166283_"  style="overflow:visible;"/>
		</clipPath>
		<g style="clip-path:url(#SVGID_00000135683156502221981910000007379464450155806616_);">
			<defs>
				
					<rect id="SVGID_00000007426114816065417650000013656010612120918146_" x="363.27" y="154.42" transform="matrix(0.7755 -0.6313 0.6313 0.7755 -17.4985 267.7935)" width="9.08" height="8.17"/>
			</defs>
			<clipPath id="SVGID_00000183968491719792182460000018379832027215544508_">
				<use xlink:href="#SVGID_00000007426114816065417650000013656010612120918146_"  style="overflow:visible;"/>
			</clipPath>
			<g style="clip-path:url(#SVGID_00000183968491719792182460000018379832027215544508_);">
				<defs>
					
						<rect id="SVGID_00000142897331977729205520000013340059706740518303_" x="363.27" y="154.42" transform="matrix(0.7755 -0.6313 0.6313 0.7755 -17.4985 267.7935)" width="9.08" height="8.17"/>
				</defs>
				<clipPath id="SVGID_00000018952587245106225330000011768638967422575253_">
					<use xlink:href="#SVGID_00000142897331977729205520000013340059706740518303_"  style="overflow:visible;"/>
				</clipPath>
				<path style="clip-path:url(#SVGID_00000018952587245106225330000011768638967422575253_);fill:#FFCB45;" d="M365.48,155.29
					c0.34-0.34,0.79-0.59,1.27-0.79c1.98-0.82,3.44-0.16,4.3,1.79c0.88,2.01-0.04,4.33-1.98,5.38c-1.02,0.55-2.04,0.96-3.22,0.53
					c-1.01-0.37-1.71-1.02-1.94-2.12C363.55,158.28,363.98,156.35,365.48,155.29z"/>
			</g>
		</g>
	</g>
</g>
<g>
	<defs>
		<rect id="SVGID_00000030479095834550072990000011710995651044021146_" x="-39.26" y="-104.72" width="454.02" height="454.02"/>
	</defs>
	<clipPath id="SVGID_00000065044043392609078370000003755509915729368754_">
		<use xlink:href="#SVGID_00000030479095834550072990000011710995651044021146_"  style="overflow:visible;"/>
	</clipPath>
	<g style="clip-path:url(#SVGID_00000065044043392609078370000003755509915729368754_);">
		<defs>
			<rect id="SVGID_00000049940229963766700300000004161348769543819174_" x="-39.26" y="-104.72" width="454.02" height="454.02"/>
		</defs>
		<clipPath id="SVGID_00000124875040446641260320000005902157276302081698_">
			<use xlink:href="#SVGID_00000049940229963766700300000004161348769543819174_"  style="overflow:visible;"/>
		</clipPath>
		<g style="clip-path:url(#SVGID_00000124875040446641260320000005902157276302081698_);">
			<defs>
				
					<rect id="SVGID_00000025426571590674258530000000934895031533383583_" x="30.85" y="53.77" transform="matrix(0.2375 -0.9714 0.9714 0.2375 -30.3821 110.9868)" width="49.3" height="42.16"/>
			</defs>
			<clipPath id="SVGID_00000079458054571031533950000009214103506360150157_">
				<use xlink:href="#SVGID_00000025426571590674258530000000934895031533383583_"  style="overflow:visible;"/>
			</clipPath>
			<g style="clip-path:url(#SVGID_00000079458054571031533950000009214103506360150157_);">
				<defs>
					
						<rect id="SVGID_00000135666972126649704710000001316634237959401857_" x="30.54" y="53.69" transform="matrix(0.2375 -0.9714 0.9714 0.2375 -30.5473 110.6227)" width="49.3" height="42.16"/>
				</defs>
				<clipPath id="SVGID_00000183934451030941881200000011565973023362230660_">
					<use xlink:href="#SVGID_00000135666972126649704710000001316634237959401857_"  style="overflow:visible;"/>
				</clipPath>
				<path style="clip-path:url(#SVGID_00000183934451030941881200000011565973023362230660_);fill:#FFCB45;" d="M62.2,96.11
					c0,0-2.65,1.44-9.38,2.53c-1.09,0.18-2.23,0.23-3.29-0.05c-1.07-0.28-2.08-1.03-2.38-2.09c-0.41-1.43,0.63-2.97,1.99-3.59
					c1.36-0.62,2.93-0.52,4.4-0.28C58.19,93.39,62.2,96.11,62.2,96.11z M49.75,55.84c-0.35,0.82-1.07,1.43-1.88,1.79
					c-0.81,0.36-1.71,0.47-2.59,0.49c-2.05,0.05-4.33-0.55-5.36-2.32c-1.02-1.75-0.33-4.19,1.29-5.42c1.59-1.21,4.09-1.51,5.75-0.35
					C48.68,51.22,50.7,53.6,49.75,55.84z M58.78,79.07c1.36,2.08,2.59,4.24,3.66,6.48c0.83,1.74,2.8,4.95,2.6,6.84
					c-2.79-1.58-5.29-3.83-8.06-5.51c-2.83-1.72-5.77-3.28-8.78-4.65c-2.53-1.15-5.13-2.19-7.4-3.78c-2.27-1.6-4.22-3.85-4.78-6.57
					c-0.56-2.72,0.58-5.88,3.08-7.09c1.66-0.8,3.66-0.66,5.37,0.02c1.71,0.68,3.19,1.84,4.58,3.05
					C52.78,71.13,56.06,74.92,58.78,79.07L58.78,79.07z M75.72,79.22c0.98-5.01,1.27-10.26-0.15-15.17
					c-1.42-4.91-4.72-9.43-9.41-11.46c-2.71-1.17-6.24-1.31-8.25,0.86c-1.21,1.31-1.61,3.21-1.47,4.98
					c0.15,1.78,0.78,3.47,1.41,5.14c2.41,6.42,4.83,12.85,7.24,19.27c1.21,3.21,2.41,6.42,3.62,9.64c0.52,1.37,1.1,2.6,2.17,0.95
					c0.84-1.28,1.37-2.93,1.94-4.34c0.65-1.64,1.22-3.31,1.71-5C74.97,82.62,75.04,80.57,75.72,79.22L75.72,79.22z"/>
			</g>
		</g>
	</g>
</g>
</svg>
